<svg width="34" height="34" viewBox="0 0 34 34" fill="none" xmlns="http://www.w3.org/2000/svg">
<rect width="34" height="34" rx="17" fill="#4285F4"/>
<path fill-rule="evenodd" clip-rule="evenodd" d="M18.7919 18.2638C17.36 19.6957 15.0384 19.6957 13.6065 18.2638C12.1746 16.8319 12.1746 14.5103 13.6065 13.0783C15.0384 11.6464 17.36 11.6464 18.7919 13.0783C20.2239 14.5103 20.2239 16.8319 18.7919 18.2638ZM19.2323 19.6468C17.2721 21.1462 14.4565 20.9994 12.6637 19.2066C10.7111 17.254 10.7111 14.0882 12.6637 12.1355C14.6163 10.1829 17.7821 10.1829 19.7348 12.1355C21.5275 13.9283 21.6743 16.7437 20.1751 18.7039L23.7418 22.2706L22.799 23.2134L19.2323 19.6468Z" fill="white"/>
</svg>
